:SAMPLES-PER-SECOND 30
:FULLY-SPECIFIED
:DEGREES
296
root  -15.6448 36.3525 -25.4443 -34.9177 -59.6186 27.5454
RightUpLeg  3.57538 -14.5862 -41.8723
RightLeg  35.864 -7.2076 -5.82345
RightFoot  -9.77425 -0.444563 27.0427
RightToes  6.35927e-011 1.30204e-014 -6.03759e-014
Spine  16.2607 5.66285 24.1891
Spine1  -12.7839 7.60292 9.36322
HEad  -53.5332 35.4859 -18.0904
LeftShoulder1  1.58643 -2.82238 -18.5133
LeftArm  -29.9529 25.6477 -42.3182
LeftForeArm  -139.679 -57.8893 -167.844
LeftHand  -0.279499 4.9861 27.1501
RightShoulder  1.8818 3.49601 20.5606
RightArm  11.2672 -11.0744 47.2794
RightForeArm  -153.06 60.6306 165.515
RightHand  -0.983763 -0.891245 -25.9813
LeftUpLeg  -27.9485 31.2274 -3.59243
LeftLeg  64.8175 4.14312 10.2705
LeftFoot  -9.11123 0.402409 -18.2874
LeftToes  7.40077e-010 7.2695e-011 -6.03601e-011
297
root  -15.54 36.3526 -24.4931 -32.0632 -60.5676 25.6808
RightUpLeg  4.31303 -15.2262 -41.7428
RightLeg  32.4263 -7.28883 -5.20467
RightFoot  -7.94606 -0.909756 28.2688
RightToes  6.35927e-011 1.30204e-014 -6.03759e-014
Spine  15.1202 7.30096 20.5128
Spine1  -13.9037 8.22513 15.7639
HEad  -36.6909 35.5536 0.812867
LeftShoulder1  1.57796 -2.72358 -18.7931
LeftArm  -29.5018 26.1402 -43.2312
LeftForeArm  -157.076 -59.4887 -165.875
LeftHand  -0.827802 15.6075 -3.92099
RightShoulder  1.75976 3.21692 19.8069
RightArm  10.0769 -9.87148 44.1616
RightForeArm  -161.43 59.5677 165.518
RightHand  -0.580294 -6.20069 -0.251335
LeftUpLeg  -29.0706 32.7896 -5.73248
LeftLeg  59.45 4.74617 9.20383
LeftFoot  -10.5994 0.185928 -18.7509
LeftToes  7.40077e-010 7.2695e-011 -6.03601e-011
298
root  -15.5135 36.3484 -23.3775 -29.8837 -62.1874 24.9313
RightUpLeg  4.42564 -14.8659 -41.5442
RightLeg  28.4915 -7.80261 -4.79165
RightFoot  -5.43329 -1.56709 29.0848
RightToes  6.35927e-011 1.30204e-014 -6.03759e-014
Spine  13.3225 8.73214 16.8193
Spine1  -15.1636 8.82878 21.5848
HEad  -15.7534 34.3034 25.2353
LeftShoulder1  1.61849 -2.97294 -18.4311
LeftArm  -30.0319 27.7107 -43.3326
LeftForeArm  -174.086 -61.9486 -162.945
LeftHand  -8.38632 32.949 -32.2084
RightShoulder  1.59849 2.72569 19.2632
RightArm  9.81515 -6.95862 43.4602
RightForeArm  -166.876 61.2603 164.014
RightHand  -3.50097 -15.0475 39.4651
LeftUpLeg  -28.6177 34.5082 -7.90589
LeftLeg  52.5604 6.07931 8.89864
LeftFoot  -9.95018 0.259561 -16.9472
LeftToes  7.40077e-010 7.2695e-011 -6.03601e-011
299
root  -15.508 36.2196 -22.166 -28.3547 -63.4851 24.7095
RightUpLeg  4.68729 -13.9125 -41.9202
RightLeg  24.6701 -8.63559 -4.52596
RightFoot  -3.11272 -2.20924 29.7744
RightToes  6.35927e-011 1.30204e-014 -6.03759e-014
Spine  11.2742 9.68398 13.2168
Spine1  -14.9237 8.89553 26.0688
HEad  -10.6952 26.4419 38.4142
LeftShoulder1  1.76114 -3.52122 -18.4761
LeftArm  -30.9732 29.9408 -42.6404
LeftForeArm  179.392 -64.4302 -160.452
LeftHand  -15.7723 39.3392 -47.1346
RightShoulder  1.43104 2.18346 18.6739
RightArm  11.3332 -4.40012 44.6721
RightForeArm  -161.155 63.8931 162.705
RightHand  -6.68205 -16.092 63.6013
LeftUpLeg  -27.1616 34.0537 -10.1512
LeftLeg  46.9767 8.31668 9.84164
LeftFoot  -10.4486 0.168165 -11.5662
LeftToes  7.40077e-010 7.2695e-011 -6.03601e-011
300
root  -15.4156 35.8582 -20.8375 -26.2426 -64.2702 23.5238
RightUpLeg  5.3672 -13.3132 -42.7531
RightLeg  21.4954 -9.52905 -4.3127
RightFoot  -0.999303 -3.00688 32.2362
RightToes  6.35927e-011 1.30204e-014 -6.03759e-014
Spine  9.38107 10.5002 10.6319
Spine1  -12.8414 8.61439 29.8341
HEad  -16.2522 23.8917 42.7252
LeftShoulder1  1.98383 -3.95901 -20.1494
LeftArm  -31.5638 31.2041 -40.8578
LeftForeArm  -179.293 -65.1155 -159.977
LeftHand  -14.8947 37.0878 -47.128
RightShoulder  1.17822 1.57284 16.6241
RightArm  11.7291 -3.95058 47.0413
RightForeArm  -154.394 64.0783 163.102
RightHand  -5.22469 -13.8055 61.371
LeftUpLeg  -26.7334 30.8051 -12.236
LeftLeg  45.8421 10.9027 12.231
LeftFoot  -14.411 -0.071815 -6.06519
LeftToes  7.40077e-010 7.2695e-011 -6.03601e-011
301
root  -15.1839 35.4126 -19.3484 -23.8966 -65.5133 21.9396
RightUpLeg  5.53307 -13.1455 -43.7995
RightLeg  18.6751 -10.241 -4.08271
RightFoot  3.02747 -4.55478 35.2096
RightToes  6.35927e-011 1.30204e-014 -6.03759e-014
Spine  9.35861 10.8663 10.7776
Spine1  -11.6903 8.67655 30.2923
HEad  -21.5035 24.5567 42.3813
LeftShoulder1  1.82816 -3.65861 -18.9899
LeftArm  -32.2752 32.4093 -41.4228
LeftForeArm  -176.809 -63.7186 -161.39
LeftHand  -12.3348 34.7339 -42.8702
RightShoulder  1.18162 1.61087 16.4809
RightArm  10.4528 -4.34423 48.0756
RightForeArm  -157.322 61.855 164.428
RightHand  -5.02599 -15.7434 49.8257
LeftUpLeg  -28.1763 28.1532 -14.3066
LeftLeg  48.4551 12.7815 15.4099
LeftFoot  -19.7327 -0.145059 -3.45012
LeftToes  7.40077e-010 7.2695e-011 -6.03601e-011
302
root  -14.8538 35.1089 -17.7653 -24.2231 -67.9616 23.2332
RightUpLeg  4.13513 -13.916 -45.618
RightLeg  15.3619 -9.24731 -3.49046
RightFoot  9.63796 -6.52248 34.7329
RightToes  6.35927e-011 1.30204e-014 -6.03759e-014
Spine  10.3766 11.2555 12.1934
Spine1  -11.0258 9.21587 28.7633
HEad  -22.0694 25.384 40.5888
LeftShoulder1  1.64095 -3.1041 -18.2588
LeftArm  -32.8768 33.0335 -41.3918
LeftForeArm  -177.993 -63.0248 -161.812
LeftHand  -13.179 35.6079 -44.1963
RightShoulder  1.19246 1.63176 16.6091
RightArm  10.1826 -3.58373 49.4895
RightForeArm  -160.232 60.5426 165.037
RightHand  -5.22397 -16.3196 48.9634
LeftUpLeg  -30.1968 29.0062 -17.2019
LeftLeg  50.6848 13.6567 17.6183
LeftFoot  -23.0229 -0.180355 -3.09121
LeftToes  7.40077e-010 7.2695e-011 -6.03601e-011
303
root  -14.4909 34.898 -16.237 -28.4941 -70.9813 28.7255
RightUpLeg  0.966731 -16.8056 -47.9312
RightLeg  13.2847 -5.70671 -2.29499
RightFoot  14.5162 -7.2329 31.1974
RightToes  6.35927e-011 1.30204e-014 -6.03759e-014
Spine  12.0415 11.5349 13.1067
Spine1  -10.9949 9.92847 26.0635
HEad  -19.8336 26.0761 40.0492
LeftShoulder1  1.60369 -2.86283 -18.6331
LeftArm  -33.5797 33.9511 -40.4476
LeftForeArm  -179.735 -63.7659 -161.065
LeftHand  -14.5307 36.8643 -46.5182
RightShoulder  1.19718 1.62542 16.7404
RightArm  12.517 -1.96725 51.2226
RightForeArm  -158.788 61.7843 164.349
RightHand  -6.08515 -16.6566 54.7431
LeftUpLeg  -32.0154 31.7216 -21.1957
LeftLeg  51.0634 14.4078 18.7341
LeftFoot  -24.5838 -0.209501 -3.07914
LeftToes  7.40077e-010 7.2695e-011 -6.03601e-011
304
root  -14.0986 34.6526 -14.8004 -33.1146 -73.1556 34.5593
RightUpLeg  -3.90473 -21.46 -48.9443
RightLeg  17.9017 -3.24507 -1.26423
RightFoot  12.956 -6.26712 28.968
RightToes  6.35927e-011 1.30204e-014 -6.03759e-014
Spine  13.4869 11.3439 13.1376
Spine1  -11.2024 10.1766 23.9192
HEad  -18.4705 27.2753 40.0281
LeftShoulder1  1.60238 -2.7558 -19.0737
LeftArm  -34.4172 34.7394 -39.8436
LeftForeArm  -179.569 -64.3061 -160.645
LeftHand  -13.735 36.1991 -45.0665
RightShoulder  1.24561 1.82548 16.7744
RightArm  15.2172 -0.555247 52.5703
RightForeArm  -156.989 63.6177 163.251
RightHand  -6.1614 -16.5697 55.6408
LeftUpLeg  -33.6919 32.7817 -25.3451
LeftLeg  50.8666 15.6658 20.0511
LeftFoot  -26.3007 -0.165385 -2.47111
LeftToes  7.40077e-010 7.2695e-011 -6.03601e-011
305
root  -13.6517 34.3695 -13.4261 -33.6075 -74.1969 35.7604
RightUpLeg  -10.1113 -28.1058 -47.4175
RightLeg  31.8812 -3.64524 -2.89639
RightFoot  6.80738 -4.51862 28.0226
RightToes  6.35927e-011 1.30204e-014 -6.03759e-014
Spine  14.0388 10.7075 12.8636
Spine1  -10.7353 9.59021 23.6224
HEad  -19.0569 28.365 39.0156
LeftShoulder1  1.53786 -2.52605 -18.9695
LeftArm  -34.8924 33.9447 -40.1665
LeftForeArm  -179.162 -64.0316 -160.909
LeftHand  -12.547 35.2024 -42.8387
RightShoulder  1.31105 2.15368 16.5525
RightArm  15.9563 0.85197 53.3901
RightForeArm  -159.045 64.1977 162.642
RightHand  -5.86175 -16.8813 52.0207
LeftUpLeg  -34.8736 31.3584 -28.3054
LeftLeg  51.1575 17.3087 22.0782
LeftFoot  -27.9775 -0.0583685 -1.54753
LeftToes  7.40077e-010 7.2695e-011 -6.03601e-011
306
root  -13.1812 34.087 -12.1948 -31.6233 -74.7896 33.2112
RightUpLeg  -15.6905 -33.0532 -44.0875
RightLeg  50.3383 -6.77688 -9.18644
RightFoot  1.46064 -2.89464 25.4796
RightToes  6.35927e-011 1.30204e-014 -6.03759e-014
Spine  14.7065 10.0263 12.6162
Spine1  -9.61383 8.69867 24.2084
HEad  -20.1386 28.5418 37.368
LeftShoulder1  1.49015 -2.39743 -18.6987
LeftArm  -34.5605 31.486 -40.8118
LeftForeArm  179.984 -63.9302 -160.906
LeftHand  -12.5263 35.2399 -42.7089
RightShoulder  1.34127 2.38158 16.1277
RightArm  15.3519 2.51328 54.2643
RightForeArm  -161.053 64.0876 162.552
RightHand  -5.68159 -16.697 51.3373
LeftUpLeg  -34.8938 30.1292 -29.6227
LeftLeg  51.88 18.3374 23.7338
LeftFoot  -28.5077 0.0727225 -0.651113
LeftToes  7.40077e-010 7.2695e-011 -6.03601e-011
307
root  -12.7169 33.8897 -11.0716 -29.3025 -75.7753 28.7621
RightUpLeg  -19.0688 -36.3947 -39.3547
RightLeg  66.8943 -5.89812 -15.0764
RightFoot  -2.50805 -1.79227 22.75
RightToes  6.35927e-011 1.30204e-014 -6.03759e-014
Spine  16.8807 9.51285 13.3318
Spine1  -9.00589 8.41906 24.3214
HEad  -20.3678 28.3705 36.079
LeftShoulder1  1.52403 -2.56297 -18.5586
LeftArm  -33.8441 28.9662 -41.3922
LeftForeArm  179.37 -64.1545 -160.664
LeftHand  -12.4404 35.044 -42.7072
RightShoulder  1.34476 2.48493 15.7592
RightArm  14.9557 3.71295 55.4099
RightForeArm  -160.213 64.2615 162.491
RightHand  -5.78442 -16.3765 53.4829
LeftUpLeg  -33.5812 31.0194 -29.4148
LeftLeg  52.5288 18.3845 24.2868
LeftFoot  -28.1321 0.211597 0.289346
LeftToes  7.40077e-010 7.2695e-011 -6.03601e-011
308
root  -12.2687 33.8448 -9.98415 -24.5723 -77.322 21.1854
RightUpLeg  -20.0579 -39.8932 -32.8147
RightLeg  78.672 -1.79256 -11.443
RightFoot  -6.07087 -1.08673 22.6721
RightToes  6.35927e-011 1.30204e-014 -6.03759e-014
Spine  20.158 9.14133 15.3687
Spine1  -9.38361 8.97858 24.1771
HEad  -19.8991 28.6799 34.9161
LeftShoulder1  1.56311 -2.74509 -18.4438
LeftArm  -33.4418 27.603 -42.181
LeftForeArm  179.985 -63.7172 -161.074
LeftHand  -11.8285 34.2339 -41.8794
RightShoulder  1.34736 2.54137 15.5759
RightArm  14.7368 4.14639 56.3527
RightForeArm  -159.237 64.4512 162.429
RightHand  -5.87295 -16.4674 53.8136
LeftUpLeg  -31.8489 33.0903 -27.9097
LeftLeg  53.2851 17.9679 24.4152
LeftFoot  -27.2799 0.311557 1.05505
LeftToes  7.40077e-010 7.2695e-011 -6.03601e-011
309
root  -11.7906 33.7081 -9.00361 -20.4133 -78.5443 15.1389
RightUpLeg  -20.6861 -45.1219 -25.4744
RightLeg  86.6521 0.31569 -1.50932
RightFoot  -3.8945 -1.75782 25.5129
RightToes  6.35927e-011 1.30204e-014 -6.03759e-014
Spine  22.577 9.32974 16.1489
Spine1  -9.60687 9.83358 24.1982
HEad  -19.5534 29.023 33.2584
LeftShoulder1  1.55897 -2.71764 -18.492
LeftArm  -33.414 27.2751 -43.073
LeftForeArm  -179.506 -62.6013 -161.984
LeftHand  -11.8278 34.2701 -41.8189
RightShoulder  1.34876 2.56017 15.5255
RightArm  13.98 4.69479 56.5907
RightForeArm  -160.303 64.2424 162.498
RightHand  -5.84055 -16.702 52.5744
LeftUpLeg  -32.01 34.5922 -27.5261
LeftLeg  55.1987 17.1392 24.9988
LeftFoot  -25.5813 0.274254 0.957967
LeftToes  7.40077e-010 7.2695e-011 -6.03601e-011
